<svg width="36" height="36" fill="none" xmlns="http://www.w3.org/2000/svg"><path fill="#fff" d="M0 0h36v36H0z"/><path d="M7.547 13.594h2.297m0 0a2.297 2.297 0 110 4.594h-3.61m3.61-4.594a2.297 2.297 0 000-4.594h-3.61M29.86 22.125c0 4.35-5.29 7.875-11.813 7.875-6.523 0-11.813-3.525-11.813-7.875M20.672 9h-1.313a3.938 3.938 0 00-3.937 3.938v2.624m0 0a2.625 2.625 0 002.625 2.626h.656a2.625 2.625 0 002.625-2.625v-.657c0-.696-.276-1.364-.769-1.856a2.696 2.696 0 00-1.856-.769c-.656 0-2.512.77-2.512.77a2.625 2.625 0 00-.77 1.855v.656zm9.188-1.968v-1.969A2.625 2.625 0 0127.233 9h.657a2.625 2.625 0 012.625 2.625v3.938a2.625 2.625 0 01-2.625 2.624h-.657a2.625 2.625 0 01-2.625-2.625v-1.968z" stroke="#000" stroke-width="1.5" stroke-linecap="round" stroke-linejoin="round"/></svg>