<svg width="1440" height="1024" fill="none" xmlns="http://www.w3.org/2000/svg"><g clip-path="url(#clip0)"><path fill="#FFFAF7" d="M0 0h1440v1024H0z"/><path stroke="#303132" stroke-width="2" d="M0 138h1440"/><path d="M698.342 83.506v-23.67l14.462 13.91c.389.389.778.81 1.2 1.264.389.454.843.94 1.264 1.524v-15.79h3.437V84.38l-14.786-14.137c-.389-.39-.778-.778-1.134-1.2a20.62 20.62 0 01-1.038-1.33v15.824h-3.405v-.032zm25.292-22.503h3.664v13.813c0 2.043.487 3.6 1.427 4.637.94 1.037 2.367 1.556 4.248 1.556 1.88 0 3.275-.519 4.247-1.556.941-1.038 1.427-2.562 1.427-4.637V61.003h3.697v14.17c0 3.08-.779 5.382-2.335 6.906s-3.891 2.302-7.036 2.302c-3.146 0-5.48-.745-7.004-2.27-1.557-1.523-2.302-3.826-2.302-6.906V61.003h-.033zm-2.334 37.84c0 1.621-.292 3.145-.908 4.572a11.934 11.934 0 01-2.659 3.859 12.14 12.14 0 01-3.956 2.594c-1.459.616-3.016.908-4.637.908-1.654 0-3.21-.292-4.702-.908a12.32 12.32 0 01-3.956-2.594 11.803 11.803 0 01-2.658-3.827c-.617-1.426-.908-2.95-.908-4.604 0-1.621.291-3.178.908-4.604a11.931 11.931 0 012.658-3.859 12.324 12.324 0 013.956-2.594 12.578 12.578 0 014.67-.876c1.653 0 3.177.292 4.669.876a12.137 12.137 0 013.956 2.594 12.064 12.064 0 012.659 3.891c.616 1.46.908 2.983.908 4.572zm-3.827 0a8.636 8.636 0 00-.616-3.275c-.421-1.038-1.037-1.945-1.816-2.756a7.865 7.865 0 00-2.658-1.848 8.235 8.235 0 00-3.211-.649c-1.134 0-2.172.227-3.21.649a7.993 7.993 0 00-2.691 1.848c-.778.81-1.394 1.718-1.816 2.756-.421 1.038-.616 2.14-.616 3.307 0 1.135.195 2.238.616 3.275a8.162 8.162 0 001.816 2.757 8.006 8.006 0 002.691 1.848 8.196 8.196 0 006.388 0 8.006 8.006 0 002.691-1.848c.779-.811 1.395-1.719 1.816-2.757.389-1.07.616-2.14.616-3.307zm17.251-7.328v19.618h-3.697V91.515h-6.063V88.37h15.758v3.145h-5.998z" fill="#144563"/><path d="M757 123h-75V48h74.968v75H757zm-71.952-3.08h68.872V51.048h-68.872v68.872z" fill="#144563"/><path d="M752.428 118.428h-65.856V52.572h65.856v65.856zm-64.818-1.07h63.748V53.61H687.61v63.748z" fill="#144563"/><path d="M750.223 116.223h-61.446V54.777h61.446v61.446zm-60.668-.778h59.89v-59.89h-59.89v59.89z" fill="#144563"/><path d="M683.837 49.056l-.757.756 5.709 5.71.757-.757-5.709-5.71zm71.332.04l-5.714 5.705.756.757 5.714-5.705-.756-.757zm-4.969 66.365l-.748.765 5.705 5.574.748-.765-5.705-5.574zm-61.418-.026l-5.701 5.578.748.765 5.702-5.578-.749-.765z" fill="#144563"/><path d="M64.256 85.39l-5.054-6.24h1.67l5.001 6.223V79.15h1.441v6.223l5.01-6.223h1.67l-5.062 6.223L74.152 92H72.43l-5.116-6.513V92h-1.441v-6.513L60.767 92h-1.75l5.239-6.61zm15.565 6.786c-1.424 0-2.549-.434-3.375-1.301-.82-.867-1.23-2.071-1.23-3.612 0-1.553.38-2.786 1.142-3.7.768-.915 1.796-1.372 3.085-1.372 1.207 0 2.163.399 2.866 1.196.703.79 1.054 1.837 1.054 3.137v.923h-6.635c.029 1.131.313 1.99.852 2.575.545.586 1.31.88 2.294.88a7.759 7.759 0 003.076-.651v1.3a7.465 7.465 0 01-1.468.475c-.457.1-1.01.15-1.66.15zm-.395-8.763c-.774 0-1.392.252-1.855.756-.457.504-.726 1.201-.808 2.092h5.036c0-.92-.205-1.623-.615-2.11-.41-.492-.996-.738-1.758-.738zm7.892-1.046v4.034h5.397v-4.034h1.459V92h-1.46v-4.342h-5.396V92H85.86v-9.633h1.46zm17.13 8.376h4.272v-8.358h1.459v8.358h1.38v4.57h-1.477V92H97.268v-9.615h1.459v8.358h4.262v-8.358h1.459v8.358zm10.345-8.376v6.109l-.062 1.6-.026.5 5.212-8.209h1.819V92h-1.362v-5.889l.026-1.16.044-1.142L115.241 92h-1.819v-9.633h1.371zm11.496 0v4.034h5.397v-4.034h1.459V92h-1.459v-4.342h-5.397V92h-1.459v-9.633h1.459zm11.408 3.982h2.628c1.225 0 2.13.228 2.716.685.592.451.888 1.128.888 2.03 0 .967-.314 1.7-.941 2.198-.621.492-1.538.738-2.751.738h-3.999v-9.633h1.459v3.982zM147.005 92h-1.459v-9.633h1.459V92zm-9.308-4.394v3.172h2.47c1.547 0 2.32-.542 2.32-1.626 0-.539-.178-.931-.536-1.177-.357-.246-.967-.37-1.828-.37h-2.426zM196.453 92l-4.359-11.39h-.071c.082.902.123 1.974.123 3.216V92h-1.379V79.15h2.25l4.069 10.6h.07l4.105-10.6h2.232V92h-1.494v-8.28c0-.948.041-1.98.123-3.093h-.07L197.657 92h-1.204zm8.824-9.633h1.565l2.109 5.493c.463 1.254.75 2.16.861 2.716h.071c.076-.299.234-.808.474-1.53.247-.726 1.043-2.952 2.391-6.679h1.564l-4.139 10.969c-.41 1.084-.891 1.852-1.442 2.303-.544.457-1.215.685-2.012.685-.446 0-.885-.05-1.319-.15v-1.168c.323.07.683.105 1.081.105 1.002 0 1.717-.562 2.145-1.687l.536-1.371-3.885-9.686zm14.994.018h1.345v4.667l3.982-4.667h1.599l-4.025 4.667L227.54 92h-1.687l-4.237-4.878V92h-1.345v-4.878L216.044 92h-1.679l4.36-4.948-4.017-4.667h1.6l3.963 4.667v-4.667zm10.143-.018v3.516c0 1.125.642 1.687 1.925 1.687.533 0 1.043-.082 1.529-.246.486-.164 1.037-.442 1.653-.835v-4.122h1.458V92h-1.458v-4.36c-.616.422-1.187.721-1.714.897-.522.17-1.114.255-1.776.255-.961 0-1.714-.252-2.259-.756-.544-.504-.817-1.186-.817-2.048v-3.62h1.459zm11.039 0v6.109l-.061 1.6-.027.5 5.212-8.209h1.819V92h-1.362v-5.889l.027-1.16.043-1.142L241.901 92h-1.819v-9.633h1.371zm11.496 0v4.034h5.397v-4.034h1.459V92h-1.459v-4.342h-5.397V92h-1.459v-9.633h1.459zm11.408 3.982h2.628c1.225 0 2.13.228 2.716.685.592.451.888 1.128.888 2.03 0 .967-.314 1.7-.941 2.198-.621.492-1.538.738-2.751.738h-3.999v-9.633h1.459v3.982zM273.665 92h-1.459v-9.633h1.459V92zm-9.308-4.394v3.172h2.47c1.547 0 2.32-.542 2.32-1.626 0-.539-.178-.931-.536-1.177-.357-.246-.966-.37-1.828-.37h-2.426zm62.543 7.743h-1.423V92h-8.93v3.349h-1.424v-4.703h.993c.903-1.517 1.673-3.363 2.312-5.537.644-2.173 1.002-4.16 1.072-5.959h5.774v11.496h1.626v4.703zm-3.12-4.703v-10.15h-2.926c-.106 1.417-.46 3.122-1.064 5.114-.603 1.987-1.307 3.665-2.109 5.037h6.099zm9.141 1.53c-1.424 0-2.549-.434-3.375-1.301-.82-.867-1.231-2.071-1.231-3.612 0-1.553.381-2.786 1.143-3.7.768-.915 1.796-1.372 3.085-1.372 1.207 0 2.162.399 2.865 1.196.703.79 1.055 1.837 1.055 3.137v.923h-6.636c.029 1.131.314 1.99.853 2.575.545.586 1.309.88 2.294.88a7.76 7.76 0 003.076-.651v1.3a7.473 7.473 0 01-1.468.475c-.457.1-1.011.15-1.661.15zm-.396-8.763c-.773 0-1.391.252-1.854.756-.457.504-.727 1.201-.809 2.092h5.036c0-.92-.205-1.623-.615-2.11-.41-.492-.996-.738-1.758-.738zm12.929.202h-3.129V92h-1.459v-8.385h-3.094v-1.248h7.682v1.248zm3.278-1.248v6.109l-.061 1.6-.026.5 5.211-8.209h1.82V92h-1.363v-5.889l.027-1.16.044-1.142L349.181 92h-1.82v-9.633h1.371zM1377.74 99.253l-2.24-20.884a.673.673 0 00-.67-.598h-4.15V76.5a6.503 6.503 0 00-6.5-6.501c-3.58 0-6.5 2.914-6.5 6.5v1.27h-4.26c-.33 0-.63.262-.67.599l-2.24 20.884c-.04.187.04.373.15.523.11.15.3.224.48.224h25.97c.19 0 .37-.075.49-.224.11-.15.18-.336.14-.523zm-7.73-17.709c.34 0 .6.262.6.598a.59.59 0 01-.6.598.59.59 0 01-.6-.598.59.59 0 01.6-.598zm-10.98-5.043a5.16 5.16 0 015.15-5.156c2.84 0 5.16 2.316 5.16 5.156v1.27h-10.31V76.5zm-.68 5.043c.34 0 .6.262.6.598a.59.59 0 01-.6.598.587.587 0 01-.59-.598c0-.336.26-.598.59-.598zm-6.42 17.074l2.09-19.54h3.66v1.233a1.91 1.91 0 00-1.27 1.794c0 1.046.86 1.905 1.91 1.905 1.04 0 1.9-.86 1.9-1.905 0-.822-.52-1.532-1.27-1.794v-1.233h10.31v1.233a1.91 1.91 0 00-1.27 1.794c0 1.046.86 1.905 1.91 1.905 1.05 0 1.9-.86 1.9-1.905 0-.822-.52-1.532-1.27-1.794v-1.233h3.81l2.1 19.54h-24.51z" fill="#303132"/><g clip-path="url(#clip1)"><path d="M1153.94 98.933l-9.12-9.128c1.89-2.105 3.06-4.88 3.06-7.93 0-6.548-5.33-11.875-11.88-11.875-6.55 0-11.87 5.327-11.87 11.875s5.32 11.875 11.87 11.875c3.05 0 5.83-1.165 7.93-3.061l9.13 9.128c.12.122.28.183.44.183.16 0 .32-.061.44-.183a.614.614 0 000-.884zM1136 92.5c-5.86 0-10.62-4.766-10.62-10.625s4.76-10.625 10.62-10.625c5.86 0 10.63 4.766 10.63 10.625S1141.86 92.5 1136 92.5z" fill="#303132"/></g><g clip-path="url(#clip2)" fill="#303132"><path d="M1289.13 85.039c-7.91 0-14.34 6.432-14.34 14.338a.626.626 0 001.25 0c0-7.22 5.87-13.092 13.09-13.092s13.09 5.873 13.09 13.092c0 .344.28.623.62.623.35 0 .62-.28.62-.623 0-7.907-6.43-14.338-14.33-14.338zm0-15.039c-3.78 0-6.86 3.076-6.86 6.857 0 3.782 3.08 6.858 6.86 6.858 3.78 0 6.85-3.076 6.85-6.858 0-3.781-3.07-6.857-6.85-6.857zm0 12.468c-3.1 0-5.61-2.517-5.61-5.61a5.613 5.613 0 015.61-5.611c3.09 0 5.61 2.517 5.61 5.61a5.62 5.62 0 01-5.61 5.61z"/></g><g clip-path="url(#clip3)"><path d="M1221.31 71.25c-3.32 0-6.07 3.09-7.18 4.55-1.11-1.46-3.86-4.55-7.19-4.55-4.31 0-7.81 3.96-7.81 8.828 0 2.656 1.05 5.13 2.9 6.825.02.046.06.089.09.127l11.57 11.537a.617.617 0 00.88 0l11.94-11.942.13-.12c.1-.091.19-.185.3-.304a.525.525 0 00.11-.15c1.34-1.64 2.08-3.756 2.08-5.973 0-4.867-3.51-8.828-7.82-8.828zm4.7 14.099c-.02.02-.03.041-.05.063-.05.067-.12.126-.18.187l-11.65 11.643-10.98-10.954a.539.539 0 00-.14-.186c-1.68-1.459-2.63-3.654-2.63-6.024 0-4.178 2.94-7.578 6.56-7.578 3.58 0 6.63 4.667 6.66 4.714.23.356.82.356 1.05 0 .03-.047 3.09-4.714 6.66-4.714 3.62 0 6.57 3.4 6.57 7.578 0 1.97-.67 3.841-1.87 5.27z" fill="#303132"/></g><path fill-rule="evenodd" clip-rule="evenodd" d="M1035 71h34.25v8.444h-1.5V72.5h-8.96v6.944h-2.18V72.5h-8.97v6.944h-2.17V72.5h-8.97v6.944h-1.5V71zm1.5 8.444c0 1.075.46 2.119 1.29 2.897.84.78 1.99 1.226 3.19 1.226 1.21 0 2.36-.447 3.19-1.226.84-.778 1.3-1.822 1.3-2.897h2.17c0 1.075.46 2.119 1.3 2.897.83.78 1.98 1.226 3.19 1.226 1.2 0 2.35-.447 3.19-1.226.83-.778 1.29-1.822 1.29-2.897h2.18c0 1.075.45 2.119 1.29 2.897.84.78 1.98 1.226 3.19 1.226s2.35-.447 3.19-1.226c.84-.778 1.29-1.822 1.29-2.897h1.5c0 1.51-.64 2.945-1.77 3.995a5.94 5.94 0 01-1.71 1.113v15.084h-26.93V84.693c-.77-.276-1.47-.7-2.07-1.254-1.13-1.05-1.77-2.486-1.77-3.995h1.5zm3.64 5.566v13.326h5.82v-9.257h12.69v9.257h5.82V84.952a6.26 6.26 0 01-1.2.115c-1.57 0-3.09-.58-4.21-1.628a5.523 5.523 0 01-1.36-1.941c-.3.724-.76 1.386-1.36 1.94a6.19 6.19 0 01-4.21 1.629c-1.57 0-3.09-.58-4.22-1.628a5.627 5.627 0 01-1.35-1.941 5.794 5.794 0 01-1.36 1.94c-1.13 1.049-2.64 1.629-4.22 1.629-.28 0-.56-.02-.84-.057zm17.21 13.326h-10.09v-7.957h10.09v7.957z" fill="#303132"/><path stroke="#303132" stroke-opacity=".14" d="M0 32.5h1440"/><path d="M443.47 80.15v8.315c0 1.465-.443 2.616-1.327 3.454-.885.838-2.101 1.257-3.648 1.257-1.547 0-2.745-.422-3.595-1.266-.843-.844-1.265-2.004-1.265-3.48v-8.28h1.494v8.385c0 1.072.293 1.896.879 2.47.586.574 1.447.861 2.584.861 1.084 0 1.919-.287 2.505-.861.586-.58.879-1.41.879-2.487V80.15h1.494zM454.957 93l-1.6-4.087h-5.15L446.625 93h-1.512l5.08-12.902h1.257L456.504 93h-1.547zm-2.065-5.432l-1.495-3.981a21.446 21.446 0 01-.597-1.855 16.714 16.714 0 01-.554 1.855l-1.512 3.981h4.158zM1284.2 22.137c-1.09 0-1.93-.333-2.53-.998-.59-.67-.88-1.616-.88-2.837 0-1.253.3-2.222.9-2.905.6-.684 1.47-1.026 2.58-1.026.36 0 .72.039 1.08.116.36.078.65.169.85.274l-.35.964a4.91 4.91 0 00-.82-.246 3.512 3.512 0 00-.78-.103c-1.53 0-2.29.97-2.29 2.912 0 .92.19 1.627.56 2.12.37.491.92.737 1.65.737.62 0 1.26-.134 1.92-.403v1.005c-.5.26-1.13.39-1.89.39zm13.36-5.866c0 3.91-1.51 5.866-4.54 5.866-.53 0-.95-.046-1.26-.137v-.977c.37.118.78.177 1.25.177 1.09 0 1.92-.337 2.47-1.011.56-.68.87-1.719.92-3.118h-.08a2.49 2.49 0 01-1 .868 3.25 3.25 0 01-1.4.294c-.89 0-1.59-.264-2.11-.793-.52-.528-.78-1.267-.78-2.214 0-1.04.29-1.86.87-2.461.58-.602 1.35-.903 2.3-.903.68 0 1.27.176 1.78.527.51.346.9.854 1.17 1.524.27.665.41 1.452.41 2.358zm-3.36-3.438c-.65 0-1.16.21-1.51.629-.36.42-.54 1.002-.54 1.75 0 .656.17 1.173.5 1.552.32.373.82.56 1.49.56.42 0 .8-.084 1.15-.253.35-.168.62-.399.82-.69.2-.292.3-.597.3-.916 0-.479-.09-.92-.28-1.326a2.293 2.293 0 00-.78-.957 1.983 1.983 0 00-1.15-.349zm5.16 8.442c0-.305.07-.535.2-.69.15-.16.35-.24.61-.24s.47.08.61.24c.15.155.23.385.23.69 0 .297-.08.524-.23.684-.15.16-.35.24-.61.24a.845.845 0 01-.59-.213c-.15-.146-.22-.383-.22-.71zm10-4.286c0 1.727-.27 3.017-.82 3.87-.54.852-1.37 1.278-2.5 1.278-1.07 0-1.89-.436-2.45-1.306-.56-.875-.84-2.155-.84-3.842 0-1.74.27-3.033.81-3.876.55-.843 1.37-1.264 2.48-1.264 1.09 0 1.91.44 2.47 1.319.57.88.85 2.153.85 3.821zm-5.46 0c0 1.454.17 2.514.51 3.179.34.66.89.991 1.63.991.76 0 1.31-.335 1.65-1.005.34-.674.51-1.73.51-3.165s-.17-2.486-.51-3.151c-.34-.67-.89-1.005-1.65-1.005-.74 0-1.29.33-1.63.991-.34.656-.51 1.712-.51 3.165zm13.47 0c0 1.727-.27 3.017-.82 3.87-.54.852-1.37 1.278-2.49 1.278-1.08 0-1.9-.436-2.46-1.306-.56-.875-.84-2.155-.84-3.842 0-1.74.27-3.033.82-3.876.54-.843 1.36-1.264 2.48-1.264 1.08 0 1.9.44 2.46 1.319.57.88.85 2.153.85 3.821zm-5.46 0c0 1.454.17 2.514.51 3.179.34.66.89.991 1.64.991.75 0 1.3-.335 1.64-1.005.34-.674.51-1.73.51-3.165s-.17-2.486-.51-3.151c-.34-.67-.89-1.005-1.64-1.005-.75 0-1.3.33-1.64.991-.34.656-.51 1.712-.51 3.165zm17.51 7.602h-1.1V22h-5.23v2.59h-1.1v-3.567h.59c.61-.83 1.09-1.803 1.44-2.92.34-1.116.52-2.315.54-3.595h3.79v6.515h1.07v3.568zm-2.16-3.569v-5.619h-1.68a12.622 12.622 0 01-.59 3.077c-.33 1.034-.74 1.882-1.23 2.543h3.5zm10.13-2.775c0 1.221-.3 2.176-.92 2.864-.61.684-1.46 1.026-2.55 1.026-.67 0-1.26-.157-1.78-.472-.52-.314-.92-.766-1.21-1.354-.28-.587-.42-1.276-.42-2.064 0-1.221.31-2.171.92-2.85.61-.684 1.46-1.026 2.54-1.026 1.05 0 1.88.349 2.49 1.046.62.697.93 1.64.93 2.83zm-5.7 0c0 .957.19 1.686.57 2.188.38.5.95.752 1.69.752s1.3-.249 1.69-.746c.39-.5.58-1.232.58-2.194 0-.952-.19-1.675-.58-2.167-.39-.497-.95-.745-1.7-.745s-1.31.244-1.69.731c-.37.488-.56 1.215-.56 2.181zM1349.08 22h-6.57v-.977l2.63-2.646c.8-.811 1.33-1.39 1.59-1.736.25-.347.44-.684.57-1.012.13-.328.19-.681.19-1.06 0-.533-.16-.954-.48-1.264-.33-.315-.78-.472-1.35-.472-.42 0-.81.068-1.18.205-.37.137-.79.385-1.24.745l-.6-.772c.92-.766 1.92-1.149 3.01-1.149.93 0 1.67.242 2.2.725.54.478.8 1.123.8 1.934 0 .634-.17 1.26-.53 1.88-.36.62-1.02 1.404-2 2.352l-2.18 2.14v.054h5.14V22zm8.06-5.01c0 1.727-.27 3.016-.82 3.868-.54.853-1.37 1.279-2.49 1.279-1.08 0-1.9-.436-2.46-1.306-.56-.875-.84-2.155-.84-3.842 0-1.74.27-3.033.82-3.876.54-.843 1.37-1.264 2.48-1.264 1.08 0 1.91.44 2.47 1.319.56.88.84 2.153.84 3.821zm-5.46 0c0 1.453.17 2.513.51 3.178.35.66.89.991 1.64.991.75 0 1.3-.335 1.64-1.005.34-.674.51-1.73.51-3.165s-.17-2.486-.51-3.151c-.34-.67-.89-1.005-1.64-1.005-.75 0-1.29.33-1.64.991-.34.656-.51 1.712-.51 3.165zm7.21 4.285c0-.305.07-.535.2-.69.14-.16.34-.24.6-.24.27 0 .47.08.62.24.15.155.22.385.22.69 0 .297-.07.524-.22.684-.15.16-.36.24-.62.24a.84.84 0 01-.58-.213c-.15-.146-.22-.383-.22-.71zm10-4.286c0 1.727-.28 3.017-.82 3.87-.54.852-1.38 1.278-2.5 1.278-1.07 0-1.89-.436-2.45-1.306-.56-.875-.84-2.155-.84-3.842 0-1.74.27-3.033.81-3.876s1.37-1.264 2.48-1.264c1.09 0 1.91.44 2.47 1.319.57.88.85 2.153.85 3.821zm-5.46 0c0 1.454.17 2.514.51 3.179.34.66.88.991 1.63.991.76 0 1.31-.335 1.64-1.005.34-.674.52-1.73.52-3.165s-.18-2.486-.52-3.151c-.33-.67-.88-1.005-1.64-1.005-.75 0-1.29.33-1.63.991-.34.656-.51 1.712-.51 3.165zm13.47 0c0 1.727-.27 3.017-.82 3.87-.54.852-1.37 1.278-2.5 1.278-1.07 0-1.89-.436-2.45-1.306-.56-.875-.84-2.155-.84-3.842 0-1.74.27-3.033.81-3.876s1.37-1.264 2.48-1.264c1.09 0 1.91.44 2.47 1.319.57.88.85 2.153.85 3.821zm-5.46 0c0 1.454.17 2.514.51 3.179.34.66.89.991 1.63.991.76 0 1.31-.335 1.64-1.005.35-.674.52-1.73.52-3.165s-.17-2.486-.52-3.151c-.33-.67-.88-1.005-1.64-1.005-.74 0-1.29.33-1.63.991-.34.656-.51 1.712-.51 3.165zM1264 23c-3.86 0-7-3.14-7-7s3.14-7 7-7 7 3.14 7 7-3.14 7-7 7zm0-13.125a6.126 6.126 0 000 12.25 6.126 6.126 0 000-12.25z" fill="#303132"/><path d="M1267.06 19.792a.448.448 0 01-.31-.129l-3.06-3.062a.449.449 0 01-.13-.31v-4.083a.44.44 0 01.88 0v3.902l2.93 2.934a.44.44 0 01-.31.748zm-145.63-2.119h-2.72v-1.217h2.72v-2.789h1.23v2.79h2.73v1.216h-2.73v2.775h-1.23v-2.775zm11.63-3.37c0 .633-.18 1.162-.55 1.586-.37.419-.89.701-1.56.847v.055c.8.1 1.4.35 1.81.752.4.396.6.925.6 1.586 0 .961-.34 1.704-1.02 2.228-.68.52-1.65.78-2.9.78-1.11 0-2.04-.18-2.8-.54v-1.429a6.33 6.33 0 002.71.656c.78 0 1.35-.143 1.74-.43.38-.288.57-.732.57-1.333 0-.534-.21-.926-.63-1.176-.43-.25-1.09-.376-2-.376h-.87v-1.306h.88c1.6 0 2.4-.551 2.4-1.654 0-.429-.14-.759-.42-.991-.28-.233-.69-.349-1.23-.349-.38 0-.74.055-1.1.164-.35.105-.76.312-1.24.622l-.79-1.121c.92-.675 1.98-1.012 3.2-1.012 1 0 1.79.217 2.36.65.56.433.84 1.03.84 1.79zm4.98-2.427c.95 0 1.7.219 2.25.656.55.433.83 1.014.83 1.743 0 1.026-.62 1.841-1.85 2.448.78.392 1.34.804 1.67 1.237.33.433.5.916.5 1.45 0 .824-.31 1.485-.91 1.982-.61.496-1.43.745-2.46.745-1.09 0-1.93-.233-2.53-.698-.59-.464-.89-1.123-.89-1.975 0-.556.15-1.055.46-1.497.32-.447.83-.843 1.54-1.19-.61-.364-1.04-.75-1.3-1.155a2.48 2.48 0 01-.39-1.367c0-.725.28-1.301.85-1.73.57-.433 1.31-.649 2.23-.649zm-1.85 7.533c0 .474.16.843.5 1.108.33.26.78.39 1.35.39.59 0 1.04-.135 1.37-.404.32-.273.49-.643.49-1.108 0-.369-.15-.706-.45-1.011-.3-.306-.76-.588-1.37-.848l-.2-.089c-.6.265-1.03.556-1.3.875-.26.315-.39.677-.39 1.087zm1.84-6.296c-.46 0-.83.114-1.11.342-.27.223-.41.529-.41.916 0 .237.05.449.15.636.1.187.24.358.44.513.19.15.51.332.97.546.54-.241.93-.494 1.15-.758.23-.27.34-.581.34-.937 0-.387-.14-.693-.42-.916-.28-.228-.65-.342-1.11-.342zm11.4 3.89c0 1.736-.28 3.026-.84 3.87-.55.842-1.4 1.264-2.55 1.264-1.11 0-1.96-.436-2.53-1.306-.58-.87-.86-2.146-.86-3.828 0-1.764.27-3.063.83-3.897.56-.838 1.41-1.257 2.56-1.257 1.11 0 1.96.437 2.53 1.312.58.875.86 2.156.86 3.842zm-5.16 0c0 1.363.14 2.335.42 2.919.28.583.73.875 1.35.875.61 0 1.06-.296 1.34-.889.29-.592.43-1.56.43-2.905 0-1.34-.14-2.308-.43-2.905-.28-.602-.73-.903-1.34-.903-.62 0-1.07.294-1.35.882-.28.588-.42 1.563-.42 2.926zm16.79-.732c0 1.97-.4 3.439-1.19 4.41-.8.97-1.99 1.456-3.59 1.456-.6 0-1.04-.037-1.3-.11v-1.346c.4.114.81.17 1.22.17 1.09 0 1.9-.291 2.43-.874.53-.584.82-1.5.87-2.748h-.08c-.27.41-.59.706-.98.888-.37.182-.82.274-1.33.274-.88 0-1.58-.276-2.08-.827-.51-.552-.76-1.308-.76-2.27 0-1.044.29-1.873.87-2.488.59-.62 1.39-.93 2.4-.93.71 0 1.33.173 1.86.52.53.346.94.85 1.23 1.51.28.656.43 1.445.43 2.365zm-3.49-3.062c-.56 0-.98.182-1.28.547-.3.36-.44.868-.44 1.524 0 .57.13 1.019.41 1.347.28.324.69.485 1.25.485.55 0 1-.161 1.37-.485.37-.324.56-.702.56-1.135 0-.405-.08-.784-.24-1.135a2.068 2.068 0 00-.66-.84 1.612 1.612 0 00-.97-.308zm11.12 1.094c0 .633-.18 1.162-.55 1.586-.37.419-.89.701-1.56.847v.055c.8.1 1.4.35 1.8.752.41.396.61.925.61 1.586 0 .961-.34 1.704-1.02 2.228-.68.52-1.65.78-2.9.78-1.11 0-2.04-.18-2.8-.54v-1.429a6.33 6.33 0 002.71.656c.77 0 1.35-.143 1.74-.43.38-.288.57-.732.57-1.333 0-.534-.21-.926-.64-1.176-.42-.25-1.08-.376-1.99-.376h-.87v-1.306h.88c1.6 0 2.39-.551 2.39-1.654 0-.429-.13-.759-.41-.991-.28-.233-.69-.349-1.23-.349-.38 0-.75.055-1.1.164-.35.105-.76.312-1.24.622l-.79-1.121c.92-.675 1.98-1.012 3.2-1.012 1 0 1.79.217 2.35.65.57.433.85 1.03.85 1.79zm9.95 7.697h-1.6v-6.453c0-.77.02-1.381.05-1.832-.1.11-.23.23-.39.362-.15.132-.66.552-1.53 1.258l-.8-1.019 2.93-2.31h1.34V22zm10.06-4.997c0 1.736-.28 3.026-.84 3.87-.56.842-1.41 1.264-2.56 1.264-1.11 0-1.95-.436-2.53-1.306-.57-.87-.86-2.146-.86-3.828 0-1.764.28-3.063.84-3.897.56-.838 1.41-1.257 2.55-1.257 1.12 0 1.96.437 2.54 1.312.57.875.86 2.156.86 3.842zm-5.16 0c0 1.363.14 2.335.42 2.919.28.583.73.875 1.34.875.62 0 1.07-.296 1.35-.889.29-.592.43-1.56.43-2.905 0-1.34-.14-2.308-.43-2.905-.28-.602-.73-.903-1.35-.903-.61 0-1.06.294-1.34.882-.28.588-.42 1.563-.42 2.926zm7.52 4.997l3.95-8.565h-5.2V12.02h6.92v1.12L1192.8 22h-1.74zm17.63-2.18h-1.35V22h-1.56v-2.18h-4.57v-1.238l4.57-6.604h1.56v6.508h1.35v1.333zm-2.91-1.334v-2.509c0-.893.02-1.624.06-2.194h-.05c-.13.301-.33.666-.6 1.094l-2.48 3.61h3.07zM1217.91 22h-1.61v-6.453c0-.77.02-1.381.06-1.832-.11.11-.24.23-.39.362-.15.132-.66.552-1.53 1.258l-.81-1.019 2.94-2.31h1.34V22zm10.41-2.18h-1.35V22h-1.56v-2.18h-4.57v-1.238l4.57-6.604h1.56v6.508h1.35v1.333zm-2.91-1.334v-2.509c0-.893.02-1.624.07-2.194h-.06c-.12.301-.33.666-.6 1.094l-2.48 3.61h3.07zm10.55-1.483c0 1.736-.28 3.026-.84 3.87-.55.842-1.4 1.264-2.55 1.264-1.12 0-1.96-.436-2.53-1.306-.58-.87-.86-2.146-.86-3.828 0-1.764.27-3.063.83-3.897.56-.838 1.41-1.257 2.56-1.257 1.11 0 1.96.437 2.53 1.312.58.875.86 2.156.86 3.842zm-5.16 0c0 1.363.14 2.335.42 2.919.28.583.73.875 1.35.875.61 0 1.06-.296 1.34-.889.29-.592.43-1.56.43-2.905 0-1.34-.14-2.308-.43-2.905-.28-.602-.73-.903-1.34-.903-.62 0-1.07.294-1.35.882-.28.588-.42 1.563-.42 2.926z" fill="#303132"/><g clip-path="url(#clip4)"><path d="M1111.47 19.526l-1.99-1.984a1.16 1.16 0 00-1.64-.002v.002l-1.14 1.14a.249.249 0 01-.32.029c-.63-.436-1.21-.927-1.75-1.467-.48-.48-.93-.998-1.33-1.549a.248.248 0 01.03-.322l1.17-1.17a1.16 1.16 0 000-1.636l-1.99-1.992a1.186 1.186 0 00-1.64 0l-.64.63a3.532 3.532 0 00-.87 3.615c.3.932.74 1.817 1.29 2.63.5.744 1.07 1.437 1.7 2.069.69.695 1.46 1.311 2.28 1.839.91.592 1.9 1.034 2.95 1.311.27.066.55.1.82.1a3.597 3.597 0 002.53-1.064l.54-.542c.45-.452.45-1.185 0-1.637zm-.5 1.154v.001-.01l-.54.542c-.7.705-1.71.995-2.68.765a9.4 9.4 0 01-2.73-1.226 12.525 12.525 0 01-2.16-1.74 12.69 12.69 0 01-1.61-1.956 9.463 9.463 0 01-1.21-2.452 2.824 2.824 0 01.7-2.895l.64-.63a.442.442 0 01.63-.002v.001l1.99 1.992c.18.175.18.46.01.636l-.01.002-1.16 1.169a.946.946 0 00-.1 1.24c.42.58.89 1.127 1.4 1.634.56.57 1.18 1.088 1.84 1.548a.95.95 0 001.22-.106l1.13-1.148a.454.454 0 01.64-.002v.002l2 1.998a.46.46 0 010 .637z" fill="#000"/></g><path fill="#F98A3E" d="M0 0h1440v1024H0z"/><g clip-path="url(#clip5)"><path d="M1112.53 584.868l-26.15-12.196-19.75 42.351-30.4-14.177 19.75-42.35-88.685-41.354 11.205-24.03 148.49-86.892 30.4 14.177-58.94 126.387 26.16 12.196-12.08 25.888zm-44.48-52.26l22.72-48.723c8.09-17.348 15.16-31.347 21.2-41.997l-1.06-.496c-5.2 4.686-12.4 9.951-21.59 15.794l-80.88 47.625 59.61 27.797zm-204.701-2.379l-23.313-217.195c-.388-3.497-3.496-6.217-6.993-6.217h-43.129v-13.211c0-37.3-30.306-67.606-67.606-67.606s-67.606 30.306-67.606 67.606v13.211h-44.294c-3.497 0-6.606 2.72-6.994 6.217l-23.313 217.195c-.388 1.943.389 3.886 1.554 5.44 1.166 1.554 3.109 2.331 5.052 2.331h270.037c1.943 0 3.885-.777 5.051-2.331 1.166-1.554 1.943-3.497 1.554-5.44zM782.921 346.06c3.497 0 6.216 2.72 6.216 6.216 0 3.497-2.719 6.217-6.216 6.217-3.497 0-6.217-2.72-6.217-6.217 0-3.496 2.72-6.216 6.217-6.216zm-114.232-52.454c0-29.529 24.09-53.618 53.619-53.618s53.619 24.089 53.619 53.618v13.211H668.689v-13.211zm-6.994 52.454c3.497 0 6.217 2.72 6.217 6.216 0 3.497-2.72 6.217-6.217 6.217-3.497 0-6.216-2.72-6.216-6.217 0-3.496 2.719-6.216 6.216-6.216zm-66.829 177.564l21.758-203.208h38.078v12.822a19.751 19.751 0 00-13.211 18.65c0 10.879 8.937 19.816 19.816 19.816s19.815-8.937 19.815-19.816a19.75 19.75 0 00-13.21-18.65v-12.822H775.15v12.822a19.751 19.751 0 00-13.211 18.65c0 10.879 8.937 19.816 19.816 19.816s19.816-8.937 19.816-19.816c0-8.548-5.44-15.93-13.211-18.65v-12.822h39.632l21.758 203.208H594.866z" fill="#fff"/><path d="M777.422 466.663c2.897-.303 5.023-2.903 4.474-5.764a61.503 61.503 0 00-61.67-49.886 61.502 61.502 0 00-59.551 52.399c-.43 2.881 1.802 5.391 4.709 5.573 2.907.182 5.383-2.035 5.864-4.908a50.96 50.96 0 0114.985-28.351 50.95 50.95 0 0185.126 26.276c.6 2.85 3.166 4.963 6.063 4.661z" fill="red"/><path d="M534.967 491.271h-28.858V538h-33.545v-46.729h-97.851v-26.513l97.851-141.504h33.545v139.453h28.858v28.564zm-62.403-28.564v-53.76c0-19.14.489-34.814 1.465-47.021h-1.172c-2.734 6.445-7.031 14.258-12.89 23.437l-53.174 77.344h65.771z" fill="#fff"/></g></g><defs><clipPath id="clip0"><path fill="#fff" d="M0 0h1440v1024H0z"/></clipPath><clipPath id="clip1"><path fill="#fff" transform="translate(1124.13 70)" d="M0 0h30v30H0z"/></clipPath><clipPath id="clip2"><path fill="#fff" transform="translate(1274.13 70)" d="M0 0h30v30H0z"/></clipPath><clipPath id="clip3"><path fill="#fff" transform="translate(1199.13 70)" d="M0 0h30v30H0z"/></clipPath><clipPath id="clip4"><path fill="#fff" transform="translate(1095 6)" d="M0 0h16.813v21H0z"/></clipPath><clipPath id="clip5"><path fill="#fff" transform="translate(357 202)" d="M0 0h820v425H0z"/></clipPath></defs></svg>