<svg width="20" height="20" fill="none" xmlns="http://www.w3.org/2000/svg"><path d="M19.99 13.726L17.38 3.6a.315.315 0 00-.307-.235h-6.758V1.067A.317.317 0 0010 .752a.318.318 0 00-.316.315v2.299H2.821c-.143 0-.269.1-.302.24L.009 13.73a.317.317 0 00.307.39h5.12a.313.313 0 00.247-.121.315.315 0 00.055-.273L3.233 4h6.451v14.617H7.507a.318.318 0 00-.315.315c0 .172.143.315.315.315h4.99a.318.318 0 00.314-.315.318.318 0 00-.315-.315H10.32V4h6.359l-2.383 9.733a.317.317 0 00.307.39h5.085a.314.314 0 00.248-.12.33.33 0 00.055-.278zM5.027 13.49H.716L2.83 4.967l2.198 8.523zm9.973 0l2.084-8.514 2.194 8.514H15z" fill="#303132"/></svg>