<svg width="260" height="47" fill="none" xmlns="http://www.w3.org/2000/svg"><path d="M241.167 15.736h-9.519v22.588h9.519V15.736zM222.17 38.322h-26.252V47h26.252v-8.678zM84.284 15.736h-9.52v22.588h9.52V15.736zM104.337 0h-9.52v38.322h9.52V0zM260 1.125h-9.016v37.197H260V1.125zM84.284 0h-9.52v8.874h9.52V0zm40.103 15.736h-9.515v22.588h9.515V15.736zm0-15.736h-9.515v8.874h9.515V0zm20.078 15.736h-9.52v22.588h9.52V15.736z" fill="#000"/><path d="M178.604 15.736v22.582h-10.727c-13.203 0-22.792-9.405-23.413-22.582h9.926c.607 7.664 6.499 13.854 13.478 13.854h1.213V15.736h9.523zm-114.374 0h-9.516v22.588h9.516V15.736zm-54.715 0H0v22.588h9.515V15.736zm35.725 0c0 3.48-1.382 6.816-3.844 9.277a13.13 13.13 0 01-18.564 0 13.116 13.116 0 01-3.845-9.277h-9.47c0 5.989 2.38 11.733 6.617 15.968a22.6 22.6 0 0031.954 0 22.575 22.575 0 006.618-15.968H45.23h.01zm150.687 22.586a13.118 13.118 0 0113.126-13.12 13.13 13.13 0 019.282 3.843 13.115 13.115 0 013.845 9.277h9.474a22.577 22.577 0 00-6.618-15.968 22.603 22.603 0 00-31.954 0 22.576 22.576 0 00-6.617 15.968h9.462z" fill="#000"/></svg>