<svg width="100" height="100" fill="none" xmlns="http://www.w3.org/2000/svg"><path d="M21.79 47.557v-31.56l19.283 18.547c.519.519 1.038 1.08 1.6 1.686.518.605 1.124 1.254 1.686 2.032V17.207h4.582v31.518l-19.714-18.85c-.52-.52-1.038-1.038-1.513-1.6a27.769 27.769 0 01-1.384-1.772V47.6h-4.54v-.044zm33.723-30.004h4.885v18.418c0 2.723.649 4.799 1.902 6.182 1.254 1.384 3.157 2.075 5.664 2.075 2.508 0 4.367-.691 5.664-2.075 1.254-1.383 1.902-3.415 1.902-6.182V17.553h4.929v18.893c0 4.108-1.038 7.177-3.113 9.21-2.075 2.031-5.188 3.069-9.382 3.069s-7.306-.995-9.338-3.027c-2.076-2.032-3.07-5.101-3.07-9.209V17.553h-.043zM52.4 68.007c0 2.162-.39 4.194-1.211 6.096a15.906 15.906 0 01-3.545 5.145c-1.557 1.513-3.33 2.68-5.275 3.459-1.945.821-4.02 1.21-6.182 1.21-2.205 0-4.28-.389-6.269-1.21a16.412 16.412 0 01-5.275-3.46c-1.556-1.512-2.723-3.198-3.545-5.1-.821-1.903-1.21-3.935-1.21-6.14 0-2.162.389-4.237 1.21-6.14a15.908 15.908 0 013.545-5.144 16.415 16.415 0 015.275-3.459c1.945-.778 4.064-1.167 6.226-1.167 2.205 0 4.237.389 6.225 1.167 1.946.778 3.718 1.946 5.275 3.459 1.556 1.513 2.724 3.286 3.545 5.188.822 1.945 1.21 3.977 1.21 6.096zm-5.102 0c0-1.513-.26-2.983-.822-4.367-.562-1.383-1.383-2.594-2.42-3.675-1.038-1.08-2.206-1.902-3.546-2.464a10.97 10.97 0 00-4.28-.864c-1.513 0-2.897.302-4.28.864a10.656 10.656 0 00-3.588 2.465c-1.038 1.08-1.86 2.29-2.422 3.674s-.821 2.854-.821 4.41c0 1.513.26 2.983.821 4.367a10.878 10.878 0 002.421 3.675 10.658 10.658 0 003.589 2.464 10.918 10.918 0 008.517 0 10.657 10.657 0 003.588-2.464c1.038-1.081 1.86-2.292 2.422-3.675.518-1.427.821-2.854.821-4.41zm23.001-9.771v26.157h-4.93V58.236h-8.084v-4.194h21.012v4.194h-7.998z" fill="#f0833a"/><path d="M100 100H0V0h99.957v100H100zM4.064 95.893h91.829V4.064H4.064v91.829z" fill="#f0833a"/></svg>