<svg version="1.1" id="Слой_2" xmlns="http://www.w3.org/2000/svg" x="0" y="0" viewBox="0 0 1093 1028.4" xml:space="preserve"><style>.st0{fill:#ab0025}.st3{fill:#7f000e}.st4{fill:#005940}.st5{fill:#6a0017}.st6{fill:#00402e}.st8{fill:#b3b3b3}.st9{fill:#666}.st10{fill:#999}.st11{fill:#ccc}.st13{fill:#754c24}.st14{fill:#fff0db}.st15{fill:#ffe7db}.st16{fill:gray}.st17{fill:#caaea3}.st18{fill:#e8bea2}.st25{fill:#a67c52}.st30{fill:#4d4d4d}.st31{fill:#ce7d13}.st32{fill:#603813}.st33{fill:#523107}</style><path class="st0" d="M93.5 847.8c-21.1 19.6-28.2 46.4-18.7 65.4C79.7 923 89 930 94.3 932.1c3.9.8 9.8 2 17 3.4 11.5 2.2 19.7 3.5 21.6 3.8 9.5 1.6 24.3 6 47 18.3 0 0 16.6 13.7 45.4-67.7L93.5 847.8z"/><ellipse transform="rotate(-2.537 442.498 998.675) scale(.99998)" cx="442.5" cy="998.7" rx="270" ry="23.1" fill="#f2f2f2"/><path d="M258.9 936s143.5 68.4 409.9-25.2l-90-244.2-292.7 44.3L258.9 936z" fill="#8c0010"/><path class="st3" d="M639.4 920.6l44.1-16.3-135.7-200.9-28.4 109.9c0 .1 77.4-78 120 107.3z"/><path class="st0" d="M604.8 692.3S789.7 854.6 685.3 923c-4.2 2.1-15.3 7-24.1 2.3-10.6-5.7-13-23.1-14.1-31.1-.6-4.6-1.6-9.2-2-13.8-.6-9.5-5.6-16.6-5.6-16.6C551.7 741.9 514.9 674.3 529.1 661c8.2-7.7 33.4 2.7 75.7 31.3z"/><path class="st3" d="M387.4 875.8c.6 0 50.2-28 73.9 0l-4.4-26.2h-55.6l-13.9 26.2z"/><path class="st4" d="M376.3 999c-21.2 0-38.3-17.2-38.3-38.3V827.8c0-21.2 17.2-38.3 38.3-38.3 21.2 0 38.3 17.2 38.3 38.3v132.8c0 21.2-17.2 38.4-38.3 38.4zm114.4 0c-21.2 0-38.3-17.2-38.3-38.3V827.8c0-21.2 17.2-38.3 38.3-38.3 21.2 0 38.3 17.2 38.3 38.3v132.8c.1 21.2-17.1 38.4-38.3 38.4z"/><path class="st5" d="M627.9 296.5s70.6 29.6 62.9 151.1c0 0-9.6-37.9-24.5-41.3 0 0 68.9 108.7-123.3 204.1l-107.6-80.2 79.3-154.6 113.2-79.1z"/><path class="st4" d="M691.1 575.3L548.5 621l46.8-129.2c-21.7-3.7-123.6-18.6-211.7 46.8C294 605.1 254.8 727.9 286 847.8h243l3.6-58.3 22.3-78.1L707.6 653l-16.5-77.7z"/><path class="st6" d="M382 750.4l35.7 14-35.7 3.3zm74.3 29l82.1-9.9-4.8 20z"/><path fill="#006649" d="M385.6 783.8l57.5 13.4-61.1 12.6z"/><path class="st6" d="M376.3 829.9l114.4-28.2-5.1-4.9-107.5 28.5z"/><path class="st8" d="M380.4 806.8l97.2-20.6 3.5 16.1-108.5 23.9z"/><path class="st9" d="M376.3 733.7l85.1 32.7-13.7 9.8-73.8-28.9z"/><path class="st10" d="M531.5 808.2s-154.7-16.6-157.6-26.3c-2.9-9.7 0-15.5 0-15.5s116.4 18.3 161 17.8l-3.4 24z"/><path class="st11" d="M379.7 765.4l163.4-12.2-5.7 19.9-157.7 13.1z"/><path d="M80.5 863.3s15.5 37.9 57.6 39.8l-52.9-46.5" fill="#85001d"/><path class="st13" d="M258.9 936c-85.1 19.3-169.7-34-189.1-119.1L15 575.3c3-3 4.6-4.7 4.6-4.7s104.8-23.8 302.7-68.8c18.5 81.7 37.1 163.4 55.6 245.1 19.4 85.2-33.9 169.8-119 189.1z"/><path class="st14" d="M657.2 5s11.5 126.7-69.8 150.5c39.2 50.3 38.7 46.8 38.7 46.8s121.1-72 31.1-197.3z"/><path class="st15" d="M621.2 190.1s102.6-61.9 36-185c0 0 50.3 105.5-41.8 168.1l5.8 16.9z"/><circle class="st16" cx="635.1" cy="245.1" r="7"/><circle class="st16" cx="214.7" cy="264" r="7"/><path class="st17" d="M624.1 204.8S749 132.1 657.2 5c0 0 69.8 110.1-37.4 186.5l4.3 13.3z"/><path class="st5" d="M212.9 286.9s-43.5 31.7-52.2 64.3c0 0-11.2 44.3-1.2 75.6 15.8 49.4-13.2 54-13.2 54s14.2 3.4 33.7-18.7c0 0-6.1 95-36.8 113.3L398 534.5 212.9 286.9z"/><path class="st18" d="M627.9 437.8l-413.2.7V253.3c0-119 96.5-215.5 215.5-215.5h8.1c105.3 0 190.6 85.3 189.7 189.9v210.1z"/><path d="M276.4 296.3l-33.8-4.3L216 442.1l114.4-3.6c-.1 0-86.1 10.4-54-142.2z" fill="#dbb49a"/><path d="M627.9 287.3H213.7v-34c0-119 96.5-215.5 215.5-215.5h8.1c96.4 0 176.1 71.6 188.9 164.5 1.2 8.5 1.8 17.2 1.8 26.1v58.9z" fill="#4d4d4d" stroke="#4d4d4d" stroke-miterlimit="10"/><path class="st6" d="M411.3 657.2s62.3-10.6 69.8-29.7l-11.4 30.6s47.2-23.3 74.8-76l-28.3-14.3-104.9 89.4z"/><path d="M213.7 438.5h414.2v9.2c-2.8 56.6-53 138.6-93.7 178-3 2.9 18.1-53.7 15.5-50.4-30.7 39.7-50.6 63.9-71.5 73.4 0 0 28.1-61.8 16.1-42.5-15.1 24.2-33.6 37.1-72 48-111.8 34.6-208.6-76.5-208.6-181.7v-34z" fill="#920004"/><path class="st14" d="M165.5 0s1.8 145.1 104.8 174.2c0 0 10.4 36.7-18.4 57.2S101 124.6 165.5 0z"/><circle cx="390.3" cy="335.1" r="22.6"/><circle cx="537.4" cy="331.6" r="22.6"/><path class="st8" d="M213.7 238.1l207.1 12.5S438.3 104 390.2 40.8c7.9-1.4 16.7-2.6 26.4-3.2 9.1-.6 17.5-.6 25.1-.3 11.4 17.7 23 39.8 33.3 65.7 15.8 39.7 29.7 93 22.7 147.5L639 220.3l-5.1 76s-408.8 19.1-420.7-9c-.3-12.7-.3-25.9.2-39.5 0-3.3.2-6.5.3-9.7z"/><path fill="#830004" d="M248.7 297.7l-25.4 140.8h-9.6V287.3z"/><path class="st18" d="M213.7 336.5c-1.4-.2-2.8-.3-4.2-.3-16.8 0-30.5 13.6-30.5 30.5 0 16.8 13.6 30.5 30.5 30.5 1.4 0 2.8-.1 4.2-.3v-60.4z"/><path d="M208.4 369.6s-7.8 8.2-9.8 15.1m-4.9-25.3s5.7 15.9 9.3 17" fill="none" stroke="#c29f88" stroke-width="3" stroke-linecap="round" stroke-miterlimit="10"/><circle class="st16" cx="457.6" cy="270.9" r="7"/><circle class="st16" cx="459" cy="195.4" r="7"/><circle class="st16" cx="450.6" cy="123.8" r="7"/><circle class="st16" cx="426.3" cy="57.7" r="7"/><circle class="st16" cx="565.3" cy="255.1" r="7"/><circle class="st16" cx="328.7" cy="266.9" r="7"/><path d="M628.1 279.7s-61.9-2.9-116.6 33.1m-212.8-25.5s88.6 5 116.6 18" stroke="#830004" stroke-width="42" fill="none" stroke-linecap="round" stroke-miterlimit="10"/><path class="st25" d="M264.3 934.9c-85.1 19.3-169.7-34-189.1-119.1L19.6 570.6l308.2-70 55.6 245.1c3 13.4 4.3 26.7 3.9 39.8-2.1 70.4-51.2 133.1-123 149.4z"/><path d="M178 554.7l81.3 358.1m-136-345.7l76.3 336.3M74.4 578.2l69.5 306.3m86.5-341.7l76.3 336.3m-27.4-347.4L348.8 838" fill="#603813" stroke="#603813" stroke-width="5" stroke-linecap="round" stroke-linejoin="round" stroke-miterlimit="10"/><path class="st9" d="M237.7 863.2c-61.4 13.9-122.4-24.5-136.3-85.9L71.1 644c-2.8-12.3 4.9-24.5 17.2-27.3l177.8-40.4c12.3-2.8 24.5 4.9 27.3 17.2l30.3 133.3c13.9 61.4-24.6 122.5-86 136.4z"/><path class="st13" d="M240.2 520.6c-3.1 1.6-6.3 3.5-9.7 5.6-5.1 3.3-8.1 6.7-11.8 10h31.9l-6.1-16.6-4.3 1z"/><path class="st3" d="M498.4 483.1l24.5-9.6 83.5 46c-.1.1-66 6.7-108-36.4zm-62.9 4.6s-19.2 46.9-121.4 49.8l-2.8-9.6 119.5-48.3 4.7 8.1z"/><ellipse cx="466" cy="461.8" rx="73" ry="36.5" fill="#4a0008"/><ellipse cx="468.2" cy="439.7" rx="39.4" ry="17" fill="#fff"/><path d="M640.3 456.5c-21.3-17-42.5-33.9-63.8-50.9-8-5.1-25.5-14.7-48.7-14.2-9.3.2-17.3 1.9-23.4 3.9-7.8 3.8-21.5 9.1-39.3 10.1-18.1 1-32.4-3-40.7-6-6.3-1.1-14.2-1.8-23.2-.9-23 2.3-39.3 13.5-46.9 19.6-8.3 6.4-17 13.7-25.9 22.2-12.2 11.6-22.4 23-30.9 33.6-8.4 8.5-17.8 17.3-28.2 26.2-17.4 14.8-34.5 26.8-50.1 36.6 0 0 160.4 18.5 197.8-42 0 0 38.2-61.4 49.5-62 11.4-.6 56.1 56.1 56.1 56.1 43.9 56 201.2 19.8 201.2 19.8-16.9-8.4-35-18.5-53.9-30.8-10.5-7.2-20.4-14.3-29.6-21.3z" fill="#b33d28"/><path class="st16" d="M247.6 861.7c-61.4 13.9-122.4-24.5-136.3-85.9L81 642.4c-2.8-12.3 4.9-24.5 17.2-27.3L276 574.7c12.3-2.8 24.5 4.9 27.3 17.2l30.3 133.3c13.8 61.5-24.7 122.6-86 136.5z"/><circle class="st30" cx="148.3" cy="666.6" r="7.9"/><circle class="st30" cx="250.6" cy="643.3" r="7.9"/><circle class="st30" cx="272.7" cy="739.4" r="7.9"/><circle class="st30" cx="169.4" cy="761.2" r="7.9"/><circle class="st10" cx="150.4" cy="666.6" r="7.9"/><circle class="st10" cx="253.2" cy="643.3" r="7.9"/><circle class="st10" cx="275" cy="739.4" r="7.9"/><circle class="st10" cx="171.9" cy="761.2" r="7.9"/><path class="st4" d="M407.2 865.6s22.5-25 54.2 0v-17.8h-55.6l1.4 17.8z"/><path class="st31" d="M683.5 577.7s3-17.8 13.1-25c10.1-7.2 18.7-1.4 29.8 2.4 11 3.8 17.3 14.4 43.7-13 0 0 7.7-4.8 25.4 0l2.6 1.2L722 659s-27.3 6.6-25.2-1.9c1.8-7.6 7.6-40.7 7.6-40.7l-20.9-38.7z"/><path class="st32" d="M867.1 536.8l9.3 15.2s186.4-252.7 193.1-294.4l-7.2-27.8 19.8-13s25.8-71-2.3-77.8L867.1 536.8z"/><path class="st32" d="M890 590.6l12.1 2.8 13.6-21.7s-3.5-8.3-5.9-9.9c-16.2-10.7-32.4-21.5-48.6-32.2 9.6 20.4 19.2 40.7 28.8 61zm-108.3 41.5L748 675.6l8.9-2 29.2-40.1z"/><path class="st33" d="M792.9 541.5l-73.3 118.1h5.6l72.9-116.2z"/><path class="st25" d="M722 659l76.1-119-50.1-25.9 20.9-33.8 37 19.8S941 190.1 1080 139c0 0 10.1 22-12.2 59.4l-19.1 17.3 10.4 25.9s-139 226.1-191.9 295.2l38.3 26.5-15.5 27.3-53.7-29.1-88.4 114c.1.1-25.9 13-25.9-16.5z"/><path d="M1037.4 188.4S913.6 299.5 842.3 483.1c0 0 123.8-107.7 195.1-294.7z" fill="#8c6239"/><path d="M1028.8 207.1S958.2 269 863.7 449c-.1 0 123.3-153.6 165.1-241.9z" fill="#60421d"/><path class="st33" d="M819.4 572.5s-52.7 12.7-43.2 67.4l12.8-9.2 30.4-58.2z"/><path class="st31" d="M824.9 571.8s-39.6-.5-48.1 58.3c0 0 31.3 16.3 50-11.5 18.7-27.7-1.9-46.8-1.9-46.8z"/><circle class="st9" cx="827.2" cy="533.7" r="10.8"/><circle class="st16" cx="825.3" cy="532.8" r="10.8"/><path class="st5" d="M213.9 287.3l-1-.4v1.1l.8.5.1-1"/><path class="st31" d="M683.5 577.7s23 43.1 13.3 79.5l17-6.8-16.2-77.6-14.1 4.9z"/><path class="st17" d="M165.5 0s-32.9 135.4 100.2 216.3c-.7 2-6.1 11.6-10.5 14.8-8.1 5.8-17.6 2.9-18.7 2.5-4.1-2.2-9.9-5.6-16.4-10.1-50.8-35.5-67-89.3-68.6-94.9-18.6-64.4 8-117.4 14-128.6z"/><path d="M270.2 174.2l-34.4-16.1s11.3-21.4 19-31.4l15.4 47.5z" fill="#333" stroke="#4d4d4d" stroke-miterlimit="10"/><ellipse transform="rotate(-11.117 609.533 193.061)" cx="609.5" cy="193.1" rx="8.5" ry="23.5" fill="#e6e6e6"/><path class="st11" d="M600.7 176.4s5.1 32.1 17.3 34.8c0 0-1.4 4.9-4.4 4.9-.4 0-1-.1-1.6-.3-.9-.3-1.7-.9-2.8-2.2-1.3-1.6-2.1-2.9-2.4-3.4-1.9-3.4-2.9-6.1-2.9-6.1-1.6-4.5-4.5-12.6-3.7-23.1 0-2 .3-3.6.5-4.6z"/><path class="st15" d="M165.5 0c-5.5 69.1 13.3 111.8 25.9 133.6 2.7 4.6 37.1 52.2 52.6 47.2 5.4-1.7-3-12.3-1.8-18.5 0 0 18 8.8 28.1 12 0 0 8.1 21.1-6.7 46.2 0 0-120.7-44.9-99.6-217.3"/><path d="M834.6 593.5s-26 6.7-26.4 39.7c0 0 25.4-4.8 26.4-39.7z" fill="#db8514"/><path stroke="#000" stroke-miterlimit="10" d="M537.4 773.1l-150.1 12.5"/><path d="M387.3 787.4s98.1 17.6 144.3 20.8m-145-43.4l156.5-11.6m-162-17.6l64.6 24.8" fill="none" stroke="#000" stroke-miterlimit="10"/></svg>